<svg height="512" viewBox="0 0 60 60" width="512" xmlns="http://www.w3.org/2000/svg"><g id="Page-1" fill="none" fill-rule="evenodd"><g id="051---Hitch-Knot" fill-rule="nonzero"><g id="Icons" transform="translate(1 1)"><path id="Shape" d="m29 33.52-.64.28-6.17 2.73-2.23.99c-1.0106811.4473506-2.1926493-.009319-2.6399999-1.02-.4473507-1.0106811.0093188-2.1926493 1.0199999-2.64l5.71-2.52z" fill="#e8edfc"/><path id="Shape" d="m41.86 27c-.148929.5975063-.566212 1.0923375-1.13 1.34l-1.82.81-4.96-2.19 5.16-2.28c.6998632-.3064094 1.5130382-.1884484 2.0969892.3041938.583951.4926423.8371769 1.274336.6530108 2.0158062z" fill="#e8edfc"/><path id="Shape" d="m41.75 25.7c-.2145631-.4855734-.6133734-.8659215-1.1085643-1.0572452-.495191-.1913238-1.0461309-.1779247-1.5314357.0372452l-.844.373c.5004028.4507888.7373414 1.1250335.6289463 1.789762-.108395.6647286-.5472572 1.2287726-1.1649463 1.497238l-.326.145 1.506.665 1.82-.81c.4855734-.2145631.8659215-.6133734 1.0572452-1.1085643.1913238-.495191.1779247-1.0461309-.0372452-1.5314357z" fill="#cad9fc"/><path id="Shape" d="m24.05 31.34-5.71 2.52c-.7973273.3506573-1.7299127.144961-2.3057507-.5085694-.5758379-.6535304-.6624934-1.6045915-.2142493-2.3514306.2089162-.3518763.5240111-.6284596.9-.79l2.38-1.05z" fill="#e8edfc"/><path id="Shape" d="m39.11 24.68-5.16 2.28-4.95-2.18c.376-.169-.935.411 6.56-2.9 1.989-.882 2.192-1.03 2.75-1.03.9443724.0032491 1.7577753.666632 1.9508671 1.5910591s-.2867556 1.8579406-1.1508671 2.2389409z" fill="#e8edfc"/><path id="Shape" d="m40.13 22.04c-.2125178-.4848674-.6094755-.8650711-1.103051-1.0564959-.4935755-.1914247-1.0430824-.1782908-1.526949.0364959l-.85.377c.4982833.4515213.733353 1.125073.6242163 1.788584-.1091368.663511-.5475618 1.2262838-1.1642163 1.494416l-3.662 1.62 1.5.662 5.16-2.28c.4864369-.2141778.8676158-.6131702 1.0593686-1.1088756s.1783069-1.0473497-.0373686-1.5331244z" fill="#cad9fc"/><path id="Shape" d="m40.69 36.49c-.2145631.4855734-.6133734.8659215-1.1085643 1.0572452-.495191.1913238-1.0461309.1779247-1.5314357-.0372452-1.41-.62-19.219-8.469-20.78-9.16-.6740223-.2744521-1.1457656-.8933685-1.2317502-1.616028s.2273624-1.4349887.8181679-1.8599345 1.3658095-.4954297 2.0235823-.1840375l20.78 9.16c1.0090812.448763 1.4685537 1.6264401 1.03 2.64z" fill="#e8edfc"/><path id="Shape" d="m39.66 33.85c-22.6-9.963-20.988-9.33-21.58-9.33-.5018129.006971-.9827855.2017863-1.348.546l19.928 8.784c.6186818.269581 1.0596878.832992 1.1727919 1.4983104.1131042.6653183-.1169485 1.3428093-.6117919 1.8016896l.829.365c.6577728.3113922 1.4327768.2409083 2.0235823-.1840375s.9041525-1.137275.8181679-1.8599345-.5577279-1.3415759-1.2317502-1.616028z" fill="#cad9fc"/><path id="Shape" d="m42.3 32.83c-.2145631.4855734-.6133734.8659215-1.1085643 1.0572452-.495191.1913238-1.0461309.1779247-1.5314357-.0372452l-20.78-9.16c-.865816-.3817639-1.3456063-1.3180569-1.1498171-2.2438255.1957892-.9257687 1.0135725-1.5876401 1.9598171-1.5861745.738 0-.127-.2 21.59 9.33.4855734.2145631.8659215.6133734 1.0572452 1.1085643.1913238.495191.1779247 1.0461309-.0372452 1.5314357z" fill="#e8edfc"/><path id="Shape" d="m42.19 31c-.414-.725-.862-.789-3.28-1.85-16.765-7.4 17.358 7.66-18.42-8.12-.725161-.3246864-1.5749225-.175404-2.146.377 2.061.909-3.536-1.574 17.566 7.743 2.5 1.1 2.876 1.143 3.28 1.85.4802017.8093924.3311418 1.8440684-.358 2.485l.828.365c.7957941.3528266 1.7284093.1503946 2.3063143-.5006052.5779051-.6509997.6683579-1.6010356.2236857-2.3493948z" fill="#cad9fc"/><path id="Shape" d="m19.1 29.16-2.38 1.05c-.3759889.1615404-.6910838.4381237-.9.79h-14.82c-.55228475 0-1-.4477153-1-1v-2c0-.5522847.44771525-1 1-1h15.13c.1524631.6012186.5728087 1.0989963 1.14 1.35z" fill="#e8edfc"/><path id="Shape" d="m58 28v2c0 .5522847-.4477153 1-1 1h-14.81c-.2062022-.3625655-.5259811-.6472038-.91-.81l-2.37-1.04 1.82-.81c.563788-.2476625.981071-.7424937 1.13-1.34h15.14c.5522847 0 1 .4477153 1 1z" fill="#e8edfc"/><path id="Shape" d="m57 27h-3c.5522847 0 1 .4477153 1 1v2c0 .5522847-.4477153 1-1 1h3c.5522847 0 1-.4477153 1-1v-2c0-.5522847-.4477153-1-1-1z" fill="#cad9fc"/><path id="Shape" d="m39 11c-.2236608 3.8563764-1.406041 7.5959973-3.44 10.88l-6.27 2.77c2.42-2.97 5.71-9.69 5.71-13.65 0-3.37-1.88-7-6-7s-6 3.63-6 7c0 3.97 3.29 10.69 5.71 13.65l-6.26-2.75c0-.0055228-.0044772-.01-.01-.01-2.0296972-3.2896187-3.2116606-7.0313573-3.44-10.89 0-6.37 4.21-11 10-11s10 4.63 10 11z" fill="#a4c2f7"/><path id="Shape" d="m29 0c-.5022473.00359714-1.0035687.04370284-1.5.12 5 .73 8.5 5.08 8.5 10.88-.2236608 3.8563764-1.406041 7.5959973-3.44 10.88l-1.907.842c-.4164039.6686586-.8715124 1.3124218-1.363 1.928l6.27-2.77c2.033959-3.2840027 3.2163392-7.0236236 3.44-10.88 0-6.37-4.21-11-10-11z" fill="#7facfa"/><path id="Shape" d="m39 47c0 6.37-4.21 11-10 11s-10-4.63-10-11c.2122402-3.6946197 1.3060693-7.284711 3.19-10.47l6.17-2.73c-2.37 3.14-5.36 9.42-5.36 13.2 0 3.37 1.88 7 6 7s6-3.63 6-7c0-3.77-2.99-10.05-5.36-13.2l6.16 2.72c1.8927766 3.1856731 2.9903972 6.7803807 3.2 10.48z" fill="#a4c2f7"/><path id="Shape" d="m35.8 36.52-6.16-2.72c.408.542.835 1.182 1.261 1.881l1.9.839c1.8924258 3.1857632 2.9897018 6.7804653 3.199 10.48 0 5.8-3.5 10.15-8.5 10.88.4964313.0762972.9977527.1164029 1.5.12 5.79 0 10-4.63 10-11-.2096028-3.6996193-1.3072234-7.2943269-3.2-10.48z" fill="#7facfa"/></g><g id="Icons_copy_2" fill="#fff" transform="translate(1 1)"><path id="Shape" d="m29 58c.5049481-.0034286 1.0089656-.0438703 1.508-.121-4.842-.718-8.508-4.899-8.508-10.879.2122402-3.6946197 1.3060693-7.284711 3.19-10.47l-2.23.99c-.4281468.1887938-.9094571.2192745-1.358.086-1.540101 2.9048754-2.4280714 6.1107149-2.602 9.394 0 6.582 4.436 11 10 11z"/><path id="Shape" d="m23.49 21.03c.506.223.578.239 1.937.837-2.0220835-3.2838058-3.1994626-7.017269-3.427-10.867 0-5.8 3.5-10.15 8.5-10.88.0197646-.00017684.0394875-.00184827.059-.005-.7905372-.11990836-1.5926165-.14441727-2.389-.073-.524.041-.567.078-.67.078-5 .73-8.5 5.08-8.5 10.88.1984183 3.5081674 1.1979926 6.9242347 2.922 9.986.506048-.2039961 1.074188-.1880534 1.568.044z"/><path id="Shape" d="m1 31h3c-.55228475 0-1-.4477153-1-1v-2c0-.5522847.44771525-1 1-1h-3c-.55228475 0-1 .4477153-1 1v2c0 .5522847.44771525 1 1 1z"/></g><g id="Icons_copy"><path id="Shape" d="m21.689 3.924 1.555 1.258c-1.4977135 1.95339381-2.288785 4.35692555-2.244 6.818h-2c-.0450306-2.91898228.9031301-5.76663777 2.689-8.076z" fill="#fff"/><g fill="#428dff"><path id="Shape" d="m58 27h-14.131c-.1572062-.9880993-.8075845-1.8277471-1.725-2.227.2344177-.6991884.1987458-1.4607842-.1-2.135-.5652175-1.2721752-1.9329267-1.9866996-3.3-1.724 1.3510535-2.7867472 2.1187396-5.82006 2.256-8.914 0-6.953-4.626-12-11-12-3.2237544-.02774818-6.2839612 1.41711424-8.311 3.924-.1842588.20796774-.2692619.4856282-.2330049.76110476.036257.27547655.1902096.52168672.4220049.67489524.436784.28626426 1.0171607.21063684 1.366-.178 1.6450928-2.04031164 4.1352689-3.21315657 6.756-3.182 5.215 0 9 4.206 9 10-.2205968 3.5699377-1.2976235 7.0342592-3.14 10.1l-2.8 1.236c2.012-3.429 3.94-8.099 3.94-11.336 0-3.854-2.19-8-7-8s-7 4.146-7 8c0 3.249 1.928 7.918 3.936 11.338l-2.8-1.232c-1.8367237-3.0701879-2.9120053-6.5353651-3.136-10.106 0-.5522847-.4477153-1-1-1s-1 .4477153-1 1c.1411613 3.0970594.9111183 6.1329966 2.263 8.923-1.0447495-.210126-2.1222416.1530482-2.8266301.9527303-.7043885.799682-.9286711 1.9143936-.5883699 2.9242697-.9119151.3908323-1.5607418 1.2207268-1.72 2.2h-14.128c-1.1045695 0-2 .8954305-2 2v2c0 1.1045695.8954305 2 2 2h13.539c-.0244166 1.1947033.6728664 2.2866004 1.767 2.767-.2342532.7009063-.198595 1.4639932.1 2.14.4842409 1.0849677 1.5608741 1.7840546 2.749 1.785.3063744-.005716.6099988-.0590189.9-.158-1.2322339 2.6603929-1.9304256 5.5367386-2.055 8.466 0 6.953 4.626 12 11 12s11-5.047 11-12c-.1243106-2.9343672-.8253163-5.8155242-2.063-8.479 1.4586492.4882261 3.0485921-.2188493 3.663-1.629.2969162-.6784983.3300776-1.4433496.093-2.145 1.0899895-.4750823 1.7882144-1.5580997 1.771-2.747h13.536c1.1045695 0 2-.8954305 2-2v-2c0-1.1045695-.8954305-2-2-2zm-17.482-.407h.011c.1232284-.0537492.2565802-.0803513.391-.078.3295056-.0004213.63807.1615059.8249311.4329042.1868612.2713983.2280323.6174291.1100689.9250958-.0965412.2492853-.2877954.4502459-.532.559l-1.412.629-2.487-1.1 3.092-1.366zm-1.63-3.652c.242737-.1126313.520682-.1224187.7707403-.0271405.2500582.0952782.4510177.2875398.5572597.5331405.1091279.2409773.1159825.5158835.019.762-.0953681.2483135-.2857373.4483992-.529.556l-4.76 2.1-2.472-1.089zm-13.888-10.941c0-2.229 1.053-6 5-6s5 3.771 5 6c0 3.258-2.627 9.147-5 12.39-2.374-3.233-5-9.119-5-12.39zm-7.679 18.293c-.3757208.1645112-.71318.4052616-.991.707h-14.33v-2h14.475c.2757557.4857648.6835027.8834568 1.176 1.147zm.3 3.147c-.1080136-.2433928-.1144923-.5198141-.018-.768.0934442-.2460701.2829709-.4435388.525-.547l1.977-.872 2.469 1.088-3.636 1.6c-.5031491.2258463-1.0941584.0017012-1.321-.501zm2.936 4.166c-.2430255.107399-.5188012.1136666-.766455.0174194-.2476538-.0962473-.4468231-.2870958-.553545-.5304194-.1077904-.2413431-.1142745-.5158365-.018-.762.0953681-.2483135.2857373-.4483992.529-.556l5.3-2.341 2.473 1.089zm18.443 10.394c0 5.794-3.785 10-9 10s-9-4.206-9-10c.2038253-3.4108877 1.1965387-6.7279197 2.9-9.69l2.8-1.241c-1.884 3.331-3.7 7.784-3.7 10.931 0 3.854 2.19 8 7 8s7-4.146 7-8c0-3.14-1.82-7.6-3.714-10.936l2.8 1.234c1.7128129 2.9632938 2.7105954 6.2853548 2.914 9.702zm-9-12.384c2.393 3.284 5 9.17 5 12.384 0 2.229-1.053 6-5 6s-5-3.771-5-6c0-3.226 2.606-9.109 5-12.384zm10.773 1.469c-.2226464.5052615-.812657.7344614-1.318.512l-20.785-9.159c-.3270766-.1441567-.5524013-.4518562-.5910963-.8071913-.0386949-.355335.1151184-.7043216.4035-.9155.2883817-.2111783.6675197-.2524654.9945963-.1083087l20.783 9.16c.5052615.2226464.7344614.812657.512 1.318zm1.613-3.66c-.2226464.5052615-.812657.7344614-1.318.512l-20.783-9.16c-.3338613-.1394811-.5663357-.44843-.6078911-.8078621-.0415555-.3594322.1142907-.7132764.4075179-.9252578s.6780922-.2490311 1.0063732-.0968801l1.935.853.048.021 18.8 8.285c.2427131.1071012.4329215.3062582.528759.5536354.0958376.2473772.0894492.5226987-.017759.7653646zm15.614-2.425h-14.319c-.2790606-.3085809-.6197231-.5552206-1-.724l-.329-.145c.4849959-.261574.8874102-.6532527 1.162-1.131h14.486z"/><path id="Shape" d="m20.612 9.049c-.5522847.00276141-1.0022386-.44271526-1.005-.995s.4427153-1.00223856.995-1.005h.01c.5522847 0 1 .44771525 1 1s-.4477153 1-1 1z"/></g></g></g></g></svg>