<?xml version="1.0" encoding="UTF-8" standalone="no"?>
<!DOCTYPE svg PUBLIC "-//W3C//DTD SVG 1.1//EN" "http://www.w3.org/Graphics/SVG/1.1/DTD/svg11.dtd">
<svg version="1.1" xmlns="http://www.w3.org/2000/svg" xmlns:xlink="http://www.w3.org/1999/xlink" preserveAspectRatio="xMidYMid meet" viewBox="0 0 640 640" width="640" height="640"><defs><path d="M506.67 217.41C518.14 217.41 523.88 223.14 523.88 234.62C523.88 234.62 523.88 234.62 523.88 234.62C523.88 246.09 518.14 251.83 506.67 251.83C274.61 251.83 145.69 251.83 119.91 251.83C108.44 251.83 102.7 246.09 102.7 234.62C102.7 234.62 102.7 234.62 102.7 234.62C102.7 223.14 108.44 217.41 119.91 217.41C351.96 217.41 480.88 217.41 506.67 217.41Z" id="b1jB5Wv0hU"></path><path d="M512.16 396.07C523.63 396.07 529.37 401.81 529.37 413.28C529.37 413.28 529.37 413.28 529.37 413.28C529.37 424.76 523.63 430.49 512.16 430.49C280.11 430.49 151.19 430.49 125.4 430.49C113.93 430.49 108.19 424.76 108.19 413.28C108.19 413.28 108.19 413.28 108.19 413.28C108.19 401.81 113.93 396.07 125.4 396.07C357.46 396.07 486.38 396.07 512.16 396.07Z" id="dJ6r50hoZ"></path><path d="M506.67 306.1C518.14 306.1 523.88 311.83 523.88 323.31C523.88 323.31 523.88 323.31 523.88 323.31C523.88 334.78 518.14 340.52 506.67 340.52C274.61 340.52 145.69 340.52 119.91 340.52C108.44 340.52 102.7 334.78 102.7 323.31C102.7 323.31 102.7 323.31 102.7 323.31C102.7 311.83 108.44 306.1 119.91 306.1C351.96 306.1 480.88 306.1 506.67 306.1Z" id="c15WftxwVp"></path></defs><g><g><g><use xlink:href="#b1jB5Wv0hU" opacity="1" fill="#e6e6e6" fill-opacity="1"></use><g><use xlink:href="#b1jB5Wv0hU" opacity="1" fill-opacity="0" stroke="#000000" stroke-width="1" stroke-opacity="0"></use></g></g><g><use xlink:href="#dJ6r50hoZ" opacity="1" fill="#e6e6e6" fill-opacity="1"></use><g><use xlink:href="#dJ6r50hoZ" opacity="1" fill-opacity="0" stroke="#000000" stroke-width="1" stroke-opacity="0"></use></g></g><g><use xlink:href="#c15WftxwVp" opacity="1" fill="#e6e6e6" fill-opacity="1"></use><g><use xlink:href="#c15WftxwVp" opacity="1" fill-opacity="0" stroke="#000000" stroke-width="1" stroke-opacity="0"></use></g></g></g></g></svg>