<svg width="777.69685" height="613.28514" xmlns="http://www.w3.org/2000/svg" data-name="Layer 1">

 <g>
  <title>Layer 1</title>
  <path id="svg_3" fill="#f2f2f2" d="m571.47643,123.1298a12.13173,12.13173 0 0 0 -6.71771,-12.199l-224.44166,-109.69709a12.0995,12.0995 0 0 0 -16.18578,5.55125l-0.00411,0.00842l-84.18012,172.23358a12.12136,12.12136 0 0 0 5.55968,16.18989l224.44161,109.69709a12.12137,12.12137 0 0 0 16.1899,-5.55968l84.18011,-172.23357a12.01171,12.01171 0 0 0 1.15808,-3.99089z"/>
  <path id="svg_7" fill="#2f2e41" d="m232.45591,238.63334a3.61841,3.61841 0 0 0 -1.7801,0.6245a53.17031,53.17031 0 0 0 7.97082,-1.10638l-6.19072,0.48188z"/>
  <path id="svg_9" fill="#f2f2f2" d="m153.52485,351.56479"/>
  <path id="svg_11" fill="#e6e6e6" d="m383.61263,185.07568l-82.40652,0a6.51929,6.51929 0 1 1 0,-13.03858l82.40652,0a6.51929,6.51929 0 1 1 0,13.03858z"/>
  <path id="svg_12" fill="#e6e6e6" d="m410.50471,207.07829l-109.2986,0a6.51929,6.51929 0 1 1 0,-13.03858l109.2986,0a6.51929,6.51929 0 0 1 0,13.03858z"/>
  <path id="svg_15" fill="#e6e6e6" d="m383.49265,364.04048l-205.24145,0a6.51929,6.51929 0 1 1 0,-13.03858l205.24145,0a6.51929,6.51929 0 1 1 0,13.03858z"/>
  <path id="svg_16" fill="#e6e6e6" d="m410.38473,386.04309l-232.13353,0a6.51929,6.51929 0 0 1 0,-13.03858l232.13353,0a6.51929,6.51929 0 1 1 0,13.03858z"/>
  <path id="svg_17" fill="#e6e6e6" d="m383.49265,436.61356l-205.24145,0a6.51929,6.51929 0 0 1 0,-13.03859l205.24145,0a6.51929,6.51929 0 1 1 0,13.03859z"/>
  <path id="svg_18" fill="#e6e6e6" d="m410.38473,458.61614l-232.13353,0a6.51929,6.51929 0 0 1 0,-13.03859l232.13353,0a6.5193,6.5193 0 0 1 0,13.03859z"/>
  <path id="svg_19" fill="#fff" d="m561.47643,236.1298a12.13173,12.13173 0 0 0 -6.71771,-12.199l-224.44166,-109.69709a12.0995,12.0995 0 0 0 -16.18578,5.55125l-0.00411,0.00842l-84.18012,172.23358a12.12136,12.12136 0 0 0 5.55968,16.18989l224.44161,109.69709a12.12137,12.12137 0 0 0 16.1899,-5.55968l84.18011,-172.23357a12.01171,12.01171 0 0 0 1.15808,-3.99089z"/>
  <path id="svg_20" fill="#3f3d56" d="m561.47643,236.1298a12.13173,12.13173 0 0 0 -6.71771,-12.199l-224.44166,-109.69709a12.0995,12.0995 0 0 0 -16.18578,5.55125l-0.00411,0.00842l-84.18012,172.23358a12.12136,12.12136 0 0 0 5.55968,16.18989l224.44161,109.69709a12.12137,12.12137 0 0 0 16.1899,-5.55968l84.18011,-172.23357a12.01171,12.01171 0 0 0 1.15808,-3.99089zm-86.61757,175.59916a10.69317,10.69317 0 0 1 -14.28521,4.9056l-224.44162,-109.69708a10.69321,10.69321 0 0 1 -4.90557,-14.28521l84.18011,-172.23357a10.69317,10.69317 0 0 1 14.28518,-4.90559l224.44162,109.69709a10.69321,10.69321 0 0 1 4.90561,14.28519l-84.18012,172.23357z"/>
  <path id="svg_21" fill="#e6e6e6" d="m536.99628,243.96126l-58.78036,120.26536a3.369,3.369 0 0 1 -4.50563,1.549l-0.00011,0l-204.16,-99.78435a2.83892,2.83892 0 0 1 -0.41747,-0.24582a3.367,3.367 0 0 1 -1.13054,-4.26189l58.78038,-120.26542a3.369,3.369 0 0 1 4.50569,-1.54893l0,0l204.16003,99.78435a3.369,3.369 0 0 1 1.549,4.50565l0,0.00009l-0.00099,0.00196z"/>
  <circle id="svg_22" fill="#6c63ff" r="29.56668" cy="208.28689" cx="357.75864"/>
  <path id="svg_23" fill="#3f3d56" d="m401.05001,330.85989l-130.31325,-63.69133a2.95392,2.95392 0 0 1 -0.46807,-0.2766l113.80964,-76.6327a4.80317,4.80317 0 0 1 7.51178,3.67142l6.34775,91.85777l0.30612,4.39658l2.80603,40.67486z"/>
  <polygon id="svg_24" opacity="0.2" points="401.05 330.86 356.558 309.114 393.905 288.064 396.594 286.548 397.938 285.789 398.244 290.185 401.05 330.86"/>
  <path id="svg_25" fill="#3f3d56" d="m473.60749,366.32276l-112.71026,-55.08776l37.34677,-21.05l2.68877,-1.51719l48.66773,-27.43325c3.19024,-1.7977 7.76143,0.22749 8.79816,3.667a5.71792,5.71792 0 0 1 0.16006,0.71138l15.04877,100.70982z"/>
  <polygon id="svg_26" fill="#ffb8b8" points="125.844 376.82 138.103 376.819 143.936 329.531 125.841 329.532 125.844 376.82"/>
  <path id="svg_27" fill="#2f2e41" d="m122.71631,372.81736l24.1438,-0.001l0.001,0a15.38605,15.38605 0 0 1 15.38647,15.38623l0,0.5l-39.53051,0.00146l-0.00076,-15.88669z"/>
  <polygon id="svg_28" fill="#ffb8b8" points="30.551 369.014 43.253 371.498 58.881 323.688 40.135 320.021 30.551 369.014"/>
  <path id="svg_29" fill="#2f2e41" d="m28.12271,364.23298l25.01436,4.89306l0.001,0.0002a16.24294,16.24294 0 0 1 12.82227,19.05981l-0.10135,0.518l-40.95584,-8.01149l3.21956,-16.45958z"/>
  <path id="svg_36" fill="#fff" d="m526.4646,594.28513l-493.4646,0a33.03734,33.03734 0 0 1 -33,-33l0,-271a33.03734,33.03734 0 0 1 33,-33l60.50269,0a32.92486,32.92486 0 0 1 22.19507,8.57959l65.61157,46.85107a23.18228,23.18228 0 0 0 15.65869,6.06934l332.56055,0a33.00029,33.00029 0 0 1 32.99658,33.48243l-3.064,209.5a33.13847,33.13847 0 0 1 -32.99655,32.51757z"/>
  <path id="svg_37" fill="#f2f2f2" d="m522.08057,578.28513l-486.16114,0a15.93751,15.93751 0 0 1 -15.91944,-15.9195l0,-275.43107a15.93754,15.93754 0 0 1 15.91944,-15.91948a14.09636,14.09636 0 0 1 14.08056,14.08056l0,258.27a14.9364,14.9364 0 0 0 14.91944,14.91943l455.5193,0a10.12538,10.12538 0 0 1 9.91528,7.5874a9.72,9.72 0 0 1 -4.30689,11.18457a7.59512,7.59512 0 0 1 -3.96655,1.22809z"/>
  <path id="svg_38" fill="#6c63ff" d="m283.42431,446.0125l-1.28,-1.28a1.37,1.37 0 0 1 -0.06356,-1.9364q0.0307,-0.03286 0.06356,-0.0636l11.23,-11.24a1.37,1.37 0 0 1 1.93644,-0.0636q0.03282,0.03076 0.06356,0.0636l11.23,11.23a1.39,1.39 0 0 1 0.03454,1.96546l-0.03454,0.03454l-1.28,1.28a1.39,1.39 0 0 1 -1.96546,0.03455l-0.03454,-0.03455l-6.64,-7l0,16.61a1.37994,1.37994 0 0 1 -1.36993,1.38995l-0.01007,0.00006l-1.85,0a1.39,1.39 0 0 1 -1.39,-1.39l0,0l0,-16.58995l-6.64,7a1.39,1.39 0 0 1 -1.9656,0.02472l-0.0344,-0.03478z"/>
  <path id="svg_39" fill="#3f3d56" d="m294.35434,421.28256a22.79,22.79 0 1 1 -22.79,22.79l0,0a22.81,22.81 0 0 1 22.79,-22.79m0,-3a25.79,25.79 0 1 0 25.79,25.79l0,0a25.79,25.79 0 0 0 -25.79,-25.79z"/>
  <path id="svg_40" fill="#3f3d56" d="m526.4646,594.28513l-493.4646,0a33.03734,33.03734 0 0 1 -33,-33l0,-271a33.03734,33.03734 0 0 1 33,-33l60.50269,0a32.92486,32.92486 0 0 1 22.19507,8.57959l65.61157,46.85107a23.18228,23.18228 0 0 0 15.65869,6.06934l332.56055,0a33.00029,33.00029 0 0 1 32.99658,33.48243l-3.064,209.5a33.13847,33.13847 0 0 1 -32.99655,32.51757zm-493.4646,-335a31.03529,31.03529 0 0 0 -31,31l0,271a31.03529,31.03529 0 0 0 31,31l493.4646,0a31.12957,31.12957 0 0 0 30.99659,-30.54688l3.06421,-209.5a31,31 0 0 0 -30.99683,-31.45312l-332.56055,0a25.17915,25.17915 0 0 1 -16.96216,-6.55127l-65.61132,-46.85108a30.93108,30.93108 0 0 0 -20.89185,-8.09765l-60.50269,0z"/>
  <path id="svg_53" fill="#ccc" d="m776.69686,613.28513l-381,0a1,1 0 0 1 0,-2l381,0a1,1 0 0 1 0,2z"/>
 </g>
</svg>